<?xml version="1.0" encoding="UTF-8" standalone="no"?>
<svg
   xmlns:dc="http://purl.org/dc/elements/1.1/"
   xmlns:cc="http://creativecommons.org/ns#"
   xmlns:rdf="http://www.w3.org/1999/02/22-rdf-syntax-ns#"
   xmlns:svg="http://www.w3.org/2000/svg"
   xmlns="http://www.w3.org/2000/svg"
   xml:space="preserve"
   style="enable-background:new 0 0 18 18;"
   viewBox="0 0 18 18"
   y="0px"
   x="0px"
   id="Layer_1"
   version="1.1"><metadata
     id="metadata27"><rdf:RDF><cc:Work
         rdf:about=""><dc:format>image/svg+xml</dc:format><dc:type
           rdf:resource="http://purl.org/dc/dcmitype/StillImage" /><dc:title></dc:title></cc:Work></rdf:RDF></metadata><defs
     id="defs25" /><style
     id="style3"
     type="text/css">
	.st0{fill:none;stroke:#263238;stroke-linecap:round;stroke-linejoin:round;stroke-miterlimit:10;}
	.st1{fill:#263238;stroke:#263238;stroke-linecap:round;stroke-linejoin:round;stroke-miterlimit:10;}
	.st2{fill:none;stroke:#297FFF;stroke-linecap:round;stroke-linejoin:round;stroke-miterlimit:10;}
</style><line
     style="fill:none;stroke:#263238;stroke-linecap:round;stroke-linejoin:round;stroke-miterlimit:10"
     id="line5"
     y2="14.6"
     x2="3.014751"
     y1="2.5"
     x1="3.014751"
     class="st0" /><line
     style="fill:none;stroke:#263238;stroke-width:1;stroke-linecap:round;stroke-linejoin:round;stroke-miterlimit:10"
     id="line7"
     y2="15.5"
     x2="15.015556"
     y1="14.6"
     x1="3.0157585"
     class="st0" /><line
     style="fill:none;stroke:#263238;stroke-linecap:round;stroke-linejoin:round;stroke-miterlimit:10"
     id="line9"
     y2="2.5"
     x2="3.014751"
     y1="3.5"
     x1="15.01475"
     class="st0" /><line
     style="fill:none;stroke:#263238;stroke-width:0.99999994;stroke-linecap:round;stroke-linejoin:round;stroke-miterlimit:10"
     id="line15"
     y2="15.460307"
     x2="15.01475"
     y1="3.5663323"
     x1="15.01475"
     class="st0" /><path
     d="M 8.1478263,4.208948 10.413206,4.8830434 9.4708341,7.0505963 9.5297721,9.4134073 7.1770978,9.1869691 4.9481438,9.9731712 4.4364831,7.6656717 2.9999758,5.7887603 5.0364263,4.5890855 6.37757,2.6428884 Z"
     id="path4180"
     style="fill:#263238;fill-opacity:0;stroke:#263238;stroke-width:1;stroke-linejoin:round;stroke-miterlimit:10;stroke-dasharray:none;stroke-opacity:0.00392157" /><path
     transform="matrix(0.24650271,0.06546296,-0.05156221,0.19415904,7.518361,7.302986)"
     d="M 6.4718246,8.4540586 C 7.2789859,9.0489518 6.0681455,9.8355952 5.4830732,9.7956137 3.8975633,9.6872665 3.353506,7.7598061 3.7887145,6.4765557 4.5672003,4.1811218 7.3879273,3.4989674 9.4380791,4.4293934 12.446759,5.7948311 13.284798,9.6117661 11.838045,12.409065 9.90975,16.137423 5.0656906,17.133668 1.5280673,15.161834 -2.9236707,12.680482 -4.0788989,6.7962931 -1.5775058,2.5215498 1.4520164,-2.6557371 8.3830176,-3.9703634 13.393085,-0.93682687 19.297276,2.6380909 20.771566,10.619797 17.204265,16.36407 13.085675,22.996062 4.0507946,24.630201 -2.4269387,20.528054 -9.7873508,15.866934 -11.581476,5.7772122 -6.9437261,-1.4334561 -1.7408715,-9.5227363 9.4048705,-11.47695 17.348091,-6.3030472 c 8.81848,5.74401277 10.932862,17.9466402 5.222395,26.6221232"
     id="path4190"
     style="fill:none;fill-rule:evenodd;stroke:#263238;stroke-width:4.41785812px;stroke-linecap:round;stroke-linejoin:round;stroke-opacity:1" /><g
     style="fill:#297FFF;fill-opacity:1;stroke:#297FFF;stroke-opacity:1"
     transform="matrix(0.54300389,0,0,0.52179256,162.00787,-195.11561)"
     id="g7"><path
       class="st0"
       d="m -289.9,399.8 c -0.4,-0.4 -1,-0.4 -1.4,0 l -4,4 c -0.4,0.4 -0.4,1 0,1.4 l 0.1,0.1 c 0.4,0.4 1,0.4 1.4,0 l 4,-4 c 0.4,-0.4 0.4,-1.1 -0.1,-1.5 l 0,0 z"
       id="path9"
       style="fill:#297FFF;stroke:#297FFF;stroke-width:1.87866616;stroke-linecap:round;stroke-linejoin:round;stroke-miterlimit:10;fill-opacity:1;stroke-opacity:1" /></g><line
     class="st0"
     x1="4.8085036"
     y1="13.340759"
     x2="7.7527981"
     y2="10.669974"
     id="line11"
     style="fill:none;stroke:#297FFF;stroke-width:0.99999994;stroke-linecap:round;stroke-linejoin:round;stroke-miterlimit:10;stroke-opacity:1" /><ellipse
     ry="0.26089627"
     rx="0.27150196"
     class="st2"
     cx="9.0605545"
     cy="4.3822036"
     id="circle23-1"
     style="fill:none;stroke:#297FFF;stroke-width:1;stroke-linecap:round;stroke-linejoin:round;stroke-miterlimit:10" /><ellipse
     ry="0.26089627"
     rx="0.27150196"
     class="st2"
     cx="5.3392563"
     cy="4.6788259"
     id="circle23-3"
     style="fill:none;stroke:#297FFF;stroke-width:1;stroke-linecap:round;stroke-linejoin:round;stroke-miterlimit:10" /><ellipse
     ry="0.26089627"
     rx="0.27150196"
     class="st2"
     cx="7.2538376"
     cy="13.388824"
     id="circle23-3-7"
     style="fill:none;stroke:#297FFF;stroke-width:1;stroke-linecap:round;stroke-linejoin:round;stroke-miterlimit:10" /><ellipse
     ry="0.26089627"
     rx="0.27150196"
     class="st2"
     cx="10.597613"
     cy="13.550621"
     id="circle23-3-1"
     style="fill:none;stroke:#297FFF;stroke-width:1;stroke-linecap:round;stroke-linejoin:round;stroke-miterlimit:10" /><ellipse
     ry="0.26089627"
     rx="0.27150196"
     class="st2"
     cx="12.916683"
     cy="5.1642127"
     id="circle23-3-8"
     style="fill:none;stroke:#297FFF;stroke-width:1;stroke-linecap:round;stroke-linejoin:round;stroke-miterlimit:10" /></svg>
