<?xml version="1.0" encoding="utf-8"?>
<svg version="1.1" id="Layer_1" xmlns="http://www.w3.org/2000/svg" xmlns:xlink="http://www.w3.org/1999/xlink" x="0px" y="0px"
	 viewBox="0 0 22 22" enable-background="new 0 0 22 22" xml:space="preserve">
<g>
	<g>
 <path fill="none" stroke="#263238" stroke-linecap="round" stroke-linejoin="round" stroke-miterlimit="10" d="M16.5,14.6
			c0,0.6-0.4,0.9-1,0.9h-9c-0.6,0-1-0.4-1-0.9V7.4c0-0.5,0.4-0.9,1-0.9h4c0.6,0,1.2,0.3,1.6,0.7l3.7,4.3c0.4,0.4,0.7,1.1,0.7,1.6
			C16.5,13,16.5,14.6,16.5,14.6z"/>
	</g>
	<g>
 <path fill="none" stroke="#92989B" stroke-linecap="round" stroke-linejoin="round" stroke-miterlimit="10" d="M20.5,18.6
			c0,0.5-0.5,0.9-1,0.9L2.4,19.4c-0.5,0-1-0.5-1-0.9V3.4c0-0.6,0.5-0.9,1-0.9h10.4c0.6,0,1.2,0.3,1.6,0.7l5.3,5.2
			c0.4,0.4,0.7,1.1,0.7,1.6V18.6z"/>
	</g>
</g>
</svg>
