<?xml version="1.0" encoding="utf-8"?>
<svg version="1.1" id="Layer_1" xmlns="http://www.w3.org/2000/svg" xmlns:xlink="http://www.w3.org/1999/xlink" x="0px" y="0px"
	 viewBox="0 0 22 22" style="enable-background:new 0 0 22 22;" xml:space="preserve">
<style type="text/css">
	.st0{fill:none;stroke:#263238;stroke-linecap:round;stroke-linejoin:round;stroke-miterlimit:10;}
	.st1{fill:none;stroke:#92989B;stroke-linecap:round;stroke-linejoin:round;stroke-miterlimit:10;}
</style>
<line class="st0" x1="13.5" y1="6.5" x2="17.5" y2="6.5"/>
<path class="st1" d="M6.5,8.5v4c0,0.6,0.4,1,1,1h10"/>
<path class="st0" d="M6.5,8.5h4c0.5,0,1.3,0.3,1.8,0.6l5.2,3.4v6c0,0.5-0.5,1-1,1h-14c-0.5,0-1-0.5-1-1v-9c0-0.5,0.5-1,1-1H6.5"/>
<line class="st1" x1="6.5" y1="7.5" x2="6.5" y2="6.5"/>
<line class="st1" x1="6.5" y1="4.5" x2="6.5" y2="3.5"/>
<line class="st1" x1="20.5" y1="12.5" x2="20.5" y2="11.5"/>
<line class="st1" x1="20.5" y1="9.5" x2="20.5" y2="8.5"/>
<line class="st1" x1="20.5" y1="6.5" x2="20.5" y2="5.5"/>
<line class="st1" x1="20.5" y1="3.5" x2="20.5" y2="2.5"/>
<line class="st1" x1="7.5" y1="2.5" x2="8.5" y2="2.5"/>
<line class="st1" x1="18.5" y1="13.5" x2="19.5" y2="13.5"/>
<line class="st1" x1="10.5" y1="2.5" x2="11.5" y2="2.5"/>
<line class="st1" x1="13.5" y1="2.5" x2="14.5" y2="2.5"/>
<line class="st1" x1="16.5" y1="2.5" x2="17.5" y2="2.5"/>
<line class="st1" x1="19.5" y1="2.5" x2="20.5" y2="2.5"/>
</svg>
